HIERARCHY
ROOT Hips
{
	OFFSET 0.000000 0.000000 0.000000
	CHANNELS 6 Xposition Yposition Zposition Xrotation Yrotation Zrotation
	JOINT LeftUpLeg_virtual
	{
		OFFSET 0.000000 0.000000 0.000000
		CHANNELS 3 Xrotation Yrotation Zrotation
		JOINT LeftUpLeg
		{
			OFFSET 13.026900 -6.336304 -1.092800
			CHANNELS 3 Xrotation Yrotation Zrotation
			JOINT LeftLeg
			{
				OFFSET 0.524474 -46.096886 9.782700
				CHANNELS 3 Xrotation Yrotation Zrotation
				JOINT LeftFoot
				{
					OFFSET -0.524474 -53.427422 -12.948200
					CHANNELS 3 Xrotation Yrotation Zrotation
					JOINT LeftToeBase
					{
						OFFSET 0.192200 -14.009700 16.364100
						CHANNELS 3 Xrotation Yrotation Zrotation
						JOINT LeftToe_End
						{
							OFFSET -1.784700 -0.561700 9.474800
							CHANNELS 3 Xrotation Yrotation Zrotation
							End Site
							{
								OFFSET 0 0 0
							}
						}
					}
				}
			}
		}
	}
	JOINT RightUpLeg_virtual
	{
		OFFSET 0.000000 0.000000 0.000000
		CHANNELS 3 Xrotation Yrotation Zrotation
		JOINT RightUpLeg
		{
			OFFSET -12.883000 -6.336304 -1.092800
			CHANNELS 3 Xrotation Yrotation Zrotation
			JOINT RightLeg
			{
				OFFSET -0.524587 -46.096825 9.782800
				CHANNELS 3 Xrotation Yrotation Zrotation
				JOINT RightFoot
				{
					OFFSET 0.524587 -53.427383 -12.948300
					CHANNELS 3 Xrotation Yrotation Zrotation
					JOINT RightToeBase
					{
						OFFSET -0.192200 -14.009700 16.364100
						CHANNELS 3 Xrotation Yrotation Zrotation
						JOINT RightToe_End
						{
							OFFSET 1.784700 -0.561700 9.474800
							CHANNELS 3 Xrotation Yrotation Zrotation
							End Site
							{
								OFFSET 0 0 0
							}
						}
					}
				}
			}
		}
	}
	JOINT Spine_virtual
	{
		OFFSET 0.000000 0.000000 0.000000
		CHANNELS 3 Xrotation Yrotation Zrotation
		JOINT Spine
		{
			OFFSET 0.072000 7.257294 -0.789700
			CHANNELS 3 Xrotation Yrotation Zrotation
			JOINT Spine1
			{
				OFFSET 0.000000 12.508769 -0.658067
				CHANNELS 3 Xrotation Yrotation Zrotation
				JOINT Spine1_split
				{
					OFFSET 0.000000 12.508769 -0.658067
					CHANNELS 3 Xrotation Yrotation Zrotation
					JOINT Spine2
					{
						OFFSET 0.000000 12.508769 -0.658067
						CHANNELS 3 Xrotation Yrotation Zrotation
						JOINT Neck_virtual
						{
							OFFSET 0.000000 0.000000 0.000000
							CHANNELS 3 Xrotation Yrotation Zrotation
							JOINT Neck
							{
								OFFSET 0.000000 14.033295 7.520400
								CHANNELS 3 Xrotation Yrotation Zrotation
								JOINT Head
								{
									OFFSET 0.000000 8.198502 5.703100
									CHANNELS 3 Xrotation Yrotation Zrotation
									JOINT HeadTop_End
									{
										OFFSET 0.000000 17.760803 13.332701
										CHANNELS 3 Xrotation Yrotation Zrotation
										End Site
										{
											OFFSET 0 0 0
										}
									}
								}
							}
						}
						JOINT LeftShoulder_virtual
						{
							OFFSET 0.000000 0.000000 0.000000
							CHANNELS 3 Xrotation Yrotation Zrotation
							JOINT LeftShoulder
							{
								OFFSET 6.292450 5.785301 -0.669000
								CHANNELS 3 Xrotation Yrotation Zrotation
								JOINT LeftShoulder_split
								{
									OFFSET 6.292450 5.785301 -0.669000
									CHANNELS 3 Xrotation Yrotation Zrotation
									JOINT LeftArm
									{
										OFFSET 13.907140 -6.093903 1.965100
										CHANNELS 3 Xrotation Yrotation Zrotation
										JOINT LeftForeArm
										{
											OFFSET 34.140198 0.000000 0.000000
											CHANNELS 3 Xrotation Yrotation Zrotation
											JOINT LeftHand
											{
												OFFSET 40.960209 0.000000 0.000000
												CHANNELS 3 Xrotation Yrotation Zrotation
												End Site
												{
													OFFSET 0 0 0
												}
											}
										}
									}
								}
							}
						}
						JOINT RightShoulder_virtual
						{
							OFFSET 0.000000 0.000000 0.000000
							CHANNELS 3 Xrotation Yrotation Zrotation
							JOINT RightShoulder
							{
								OFFSET -6.292450 5.785301 -0.669000
								CHANNELS 3 Xrotation Yrotation Zrotation
								JOINT RightShoulder_split
								{
									OFFSET -6.292450 5.785301 -0.669000
									CHANNELS 3 Xrotation Yrotation Zrotation
									JOINT RightArm
									{
										OFFSET -13.907140 -6.093903 1.965100
										CHANNELS 3 Xrotation Yrotation Zrotation
										JOINT RightForeArm
										{
											OFFSET -34.140198 0.000000 0.000000
											CHANNELS 3 Xrotation Yrotation Zrotation
											JOINT RightHand
											{
												OFFSET -40.960209 0.000000 0.000000
												CHANNELS 3 Xrotation Yrotation Zrotation
												End Site
												{
													OFFSET 0 0 0
												}
											}
										}
									}
								}
							}
						}
					}
				}
			}
		}
	}
}
MOTION
Frames: 5
Frame Time: 0.03333333
-16.334896 101.530746 3.120014 0.000000 0.000000 0.000000 24.597536 -65.631704 19.133566 -64.190500 -19.927208 16.908418 46.553197 -7.244011 5.332268 1.813959 0.820252 -13.245327 -2.883770 2.262223 -0.472094 0.000000 0.000000 0.000000 21.385278 -68.862213 18.482026 -46.645257 0.155251 -20.879634 58.111407 -4.610741 2.304950 9.073421 -2.143584 14.840244 -4.832015 0.400478 3.769536 0.000000 0.000000 0.000000 29.616943 -68.005598 23.129341 8.027223 8.825629 -3.967466 0.016099 11.671900 3.115657 0.317910 0.696378 0.029521 0.000000 0.000000 0.000000 11.426953 12.801064 0.435080 -0.480802 11.009221 -6.371232 -14.625122 11.240342 8.152501 0.000000 0.000000 0.000000 5.279690 14.050083 0.914148 5.569134 4.489357 -7.880750 10.623643 9.860918 -3.005134 -62.098256 -29.956913 -47.698851 5.194957 -76.764653 3.163656 0.000000 0.000000 0.000000 6.375668 13.260005 1.721003 -13.235372 6.349177 -1.526238 -5.418740 -2.218212 -9.416245 -79.086754 38.507060 107.327646 -6.744694 48.507129 6.039811 0.000000 0.000000 0.000000 
-15.659906 103.579903 -4.341404 0.000000 0.000000 0.000000 22.473822 -62.946279 15.527440 -65.606139 -18.087943 14.966543 47.300166 -5.571684 4.392256 2.936486 0.477484 -13.149280 -3.425457 1.802115 0.198144 0.000000 0.000000 0.000000 21.252649 -69.057830 17.236831 -44.442566 -1.737301 -18.871396 54.952529 -2.938767 1.272174 9.467576 0.598277 19.678031 -6.301888 0.789300 2.375157 0.000000 0.000000 0.000000 32.289716 -68.858306 24.775961 6.947116 8.969924 -2.650569 -0.435728 11.779783 3.270209 0.215789 0.032324 0.169642 0.000000 0.000000 0.000000 11.449948 13.077064 0.412228 0.778821 11.266085 -7.249159 -14.054950 12.183120 7.661758 0.000000 0.000000 0.000000 5.408020 14.087187 0.961252 5.377430 4.311228 -7.894540 10.737194 10.103790 -2.298024 -62.130208 -29.830380 -46.921279 4.491921 -75.659515 2.057237 0.000000 0.000000 0.000000 6.412546 13.484560 1.916712 -12.923408 6.575261 -1.618019 -6.046081 -2.168041 -10.252593 -78.122980 37.622792 105.719922 -6.444041 47.382774 5.734757 0.000000 0.000000 0.000000 
-14.705724 106.051231 -13.944523 0.000000 0.000000 0.000000 21.460757 -63.608992 13.301601 -65.681838 -12.883000 12.537565 46.932955 -3.057921 2.863368 5.034789 -0.511938 -12.531007 -4.161159 1.030579 1.378496 0.000000 0.000000 0.000000 23.627969 -70.596917 17.624198 -39.585055 -5.254771 -13.964306 48.917221 -2.718633 0.434462 6.725574 1.475866 21.115764 -5.748525 1.038762 0.811966 0.000000 0.000000 0.000000 35.874804 -70.833105 27.094399 5.546683 9.247362 -0.662176 -0.697487 12.040076 3.552178 0.421530 -0.217749 0.496945 0.000000 0.000000 0.000000 11.634589 13.520347 0.679405 1.824839 11.268057 -8.521876 -12.443143 12.794806 6.058036 0.000000 0.000000 0.000000 5.679323 14.280980 1.310749 5.190086 3.928928 -8.303452 11.470108 10.042709 -1.751466 -61.971399 -30.497819 -46.811613 5.662700 -76.042327 2.555027 0.000000 0.000000 0.000000 6.573739 13.782742 2.376726 -12.554933 7.062299 -1.359583 -6.746004 -2.027960 -10.410591 -77.034767 38.201986 103.491183 -6.157046 46.685723 5.358867 0.000000 0.000000 0.000000 
-13.872947 107.928513 -24.920223 0.000000 0.000000 0.000000 23.154737 -68.401858 14.103719 -64.440922 -6.315422 10.071893 46.540383 -0.270183 1.174341 7.714726 -1.740241 -11.385134 -4.747370 0.192005 2.649453 0.000000 0.000000 0.000000 28.682013 -73.946462 20.676425 -34.098722 -9.293301 -8.061624 43.607370 -4.221513 0.107519 1.783267 -0.099021 18.669410 -3.861967 1.004205 -0.613978 0.000000 0.000000 0.000000 41.326985 -73.642560 31.182597 4.209704 9.557889 1.427712 -0.803848 12.448144 3.924178 0.495731 -0.213166 0.857394 0.000000 0.000000 0.000000 11.783060 14.092753 1.177844 2.626049 10.962215 -9.799997 -10.411127 13.042344 3.741289 0.000000 0.000000 0.000000 5.962792 14.631443 1.858557 5.085433 3.484532 -8.992866 12.696993 9.595062 -1.433100 -61.315954 -31.803700 -47.050253 8.215212 -77.257123 4.297323 0.000000 0.000000 0.000000 6.834734 14.166839 2.975642 -12.177841 7.759152 -0.911778 -7.389509 -1.529899 -10.291183 -75.778340 39.767182 101.223909 -5.922312 46.506942 4.947160 0.000000 0.000000 0.000000 
-13.367973 108.355576 -36.319431 0.000000 0.000000 0.000000 30.409126 -75.644769 20.911804 -63.127416 -0.321342 8.041888 47.463463 1.958391 -0.352634 10.573205 -2.815080 -9.979338 -4.362764 -0.387136 3.282161 0.000000 0.000000 0.000000 38.529121 -78.478395 29.231796 -29.349712 -12.976091 -3.653863 42.419665 -6.674049 0.338409 -4.111601 -3.177902 13.654980 -3.542373 0.694056 -1.693240 0.000000 0.000000 0.000000 48.122579 -76.442582 36.976684 3.165926 9.945962 3.105448 -0.830901 13.000616 4.356644 0.479669 -0.013983 1.059792 0.000000 0.000000 0.000000 11.780680 14.731917 1.774575 3.205264 10.253103 -10.697293 -8.697402 12.952235 1.333303 0.000000 0.000000 0.000000 6.166439 15.136053 2.447012 5.168250 3.289481 -10.000298 13.541145 8.275887 -0.745758 -60.033989 -33.454991 -47.263089 11.429842 -78.487186 6.728104 0.000000 0.000000 0.000000 7.083873 14.646524 3.547790 -11.960143 8.500528 -0.431462 -7.207805 -0.697104 -9.917109 -74.553195 41.345198 99.459412 -5.779505 47.102224 4.539042 0.000000 0.000000 0.000000 
